<svg xmlns="http://www.w3.org/2000/svg" viewBox="0 0 32 32">
  <rect width="32" height="32" rx="8" fill="#E8A020"/>
  <!-- Bootstrap Icons: house-heart-fill (scaled), colored deep green -->
  <g transform="translate(6.5 6.5) scale(1.19)" fill="#123B2A">
    <path d="M7.293 1.5a1 1 0 0 1 1.414 0L11 3.793V2.5a.5.5 0 0 1 .5-.5h1a.5.5 0 0 1 .5.5v3.293l2.354 2.353a.5.5 0 0 1-.708.708L8 2.207 1.354 8.854a.5.5 0 1 1-.708-.708z"/>
    <path d="m14 9.293-6-6-6 6V13.5A1.5 1.5 0 0 0 3.5 15h9a1.5 1.5 0 0 0 1.5-1.5zm-6-.811c1.664-1.673 5.825 1.254 0 5.018-5.825-3.764-1.664-6.691 0-5.018"/>
  </g>
</svg>
